<svg xmlns="http://www.w3.org/2000/svg" viewBox="-2 -2 70 72"><g fill="#00E5A0"><path d="M32.69,67.45C-5.96,57.57.43,8.71.43,8.71,18.44,10.73,31.74.75,32.7.02c.04-.03,13.56,10.79,32.27,8.69,0,0,6.42,48.86-32.23,58.74h-.05ZM32.65,60.63c30.84-7.88,25.79-46.87,25.79-46.87-14.93,1.67-25.72-6.96-25.75-6.93-.76.59-11.37,8.55-25.75,6.93,0,0-5.13,38.96,25.71,46.84v.02Z"/><path d="M.43,8.71C17.87,10.66,31.01,1.26,32.69,0v6.84c-1.43,1.07-11.9,8.48-25.74,6.93,0,0-4.92,38.86,25.72,46.84v6.84C-6.18,57.18.43,8.71.43,8.71Z"/><path d="M29.62,39.35c-3.04-1.16-5.21-4.1-5.21-7.56,0-4.47,3.63-8.1,8.1-8.1.05,0,.1,0,.15,0l.05-12.14c-1.36,1.01-9.99,6.97-21.25,5.71,0,0-3.79,29.41,18.16,37.65v-15.56Z"/><path d="M53.93,17.27c-12.31,1.38-21.21-5.74-21.24-5.72-.11.09-.51.38-1.13.79.53-.34.93-.62,1.14-.78l-.05,12.14c-.05,0-.1,0-.15,0,4.47,0,8.1,3.63,8.1,8.1,0,3.45-2.17,6.39-5.21,7.56v15.72c22.38-8.03,18.53-37.8,18.53-37.8Z"/></g></svg>
