<?xml version="1.0" encoding="UTF-8"?>
<svg id="Layer_2" data-name="Layer 2" xmlns="http://www.w3.org/2000/svg" viewBox="0 0 300 67.45">
  <defs>
    <style>
      .cls-1 {
        fill: #fff;
      }
    </style>
  </defs>
  <g id="Layer_1-2" data-name="Layer 1">
    <g>
      <g>
        <path class="cls-1" d="M32.69,67.45C-5.96,57.57.43,8.71.43,8.71,18.44,10.73,31.74.75,32.7.02c.04-.03,13.56,10.79,32.27,8.69,0,0,6.42,48.86-32.23,58.74h-.05ZM32.65,60.63c30.84-7.88,25.79-46.87,25.79-46.87-14.93,1.67-25.72-6.96-25.75-6.93-.76.59-11.37,8.55-25.75,6.93,0,0-5.13,38.96,25.71,46.84v.02Z"/>
        <path class="cls-1" d="M32.4,55.92s.04-.01.06-.02c0,0,.01,0,.02,0h-.08Z"/>
        <path class="cls-1" d="M.43,8.71C17.87,10.66,31.01,1.26,32.69,0v6.84c-1.43,1.07-11.9,8.48-25.74,6.93,0,0-4.92,38.86,25.72,46.84v6.84C-6.18,57.18.43,8.71.43,8.71Z"/>
        <path class="cls-1" d="M29.62,39.35c-3.04-1.16-5.21-4.1-5.21-7.56,0-4.47,3.63-8.1,8.1-8.1.05,0,.1,0,.15,0l.05-12.14c-1.36,1.01-9.99,6.97-21.25,5.71,0,0-3.79,29.41,18.16,37.65v-15.56Z"/>
        <path class="cls-1" d="M53.93,17.27c-12.31,1.38-21.21-5.74-21.24-5.72-.11.09-.51.38-1.13.79.53-.34.93-.62,1.14-.78l-.05,12.14c-.05,0-.1,0-.15,0,4.47,0,8.1,3.63,8.1,8.1,0,3.45-2.17,6.39-5.21,7.56v15.72c22.38-8.03,18.53-37.8,18.53-37.8Z"/>
      </g>
      <g>
        <g>
          <path class="cls-1" d="M77.2,20.2v-.07c0-6.76,4.65-12.3,11-12.3,3.78,0,6.06,1.16,8.24,3.26l-2.91,3.98c-1.62-1.53-3.06-2.41-5.49-2.41-3.36,0-6.03,3.36-6.03,7.41v.07c0,4.35,2.64,7.54,6.36,7.54,1.68,0,3.18-.48,4.35-1.43v-3.4h-4.65v-4.52h9.11v10.33c-2.16,2.07-5.13,3.77-8.96,3.77-6.54,0-11.03-5.2-11.03-12.23Z"/>
          <path class="cls-1" d="M106.62,8.75c-.98,3.33-2.37,6.66-3.79,9.21l-2.9.27c.95-2.89,1.77-6.18,2.18-9.17l4.51-.31Z"/>
          <path class="cls-1" d="M108.4,28.56l2.73-3.7c1.89,1.77,3.87,2.89,6.27,2.89,1.89,0,3.03-.85,3.03-2.24v-.07c0-1.33-.72-2-4.23-3.02-4.23-1.22-6.96-2.55-6.96-7.27v-.07c0-4.31,3.06-7.17,7.35-7.17,3.06,0,5.67,1.09,7.79,3.02l-2.4,3.94c-1.86-1.46-3.69-2.34-5.46-2.34s-2.7.92-2.7,2.07v.07c0,1.56.9,2.07,4.53,3.13,4.26,1.26,6.66,2.99,6.66,7.14v.07c0,4.72-3.18,7.37-7.71,7.37-3.18,0-6.39-1.26-8.9-3.81Z"/>
          <path class="cls-1" d="M129.02,8.24h15.83v4.65h-11.24v4.82h9.89v4.65h-9.89v4.99h11.39v4.65h-15.98V8.24Z"/>
          <path class="cls-1" d="M148.18,20.2v-.07c0-6.76,4.5-12.3,10.94-12.3,3.96,0,6.33,1.49,8.27,3.67l-2.94,3.84c-1.62-1.66-3.27-2.68-5.37-2.68-3.54,0-6.09,3.33-6.09,7.41v.07c0,4.08,2.49,7.48,6.09,7.48,2.4,0,3.87-1.09,5.52-2.79l2.94,3.36c-2.16,2.62-4.56,4.25-8.6,4.25-6.18,0-10.76-5.4-10.76-12.23Z"/>
          <path class="cls-1" d="M170.9,21.84v-13.59h4.62v13.46c0,3.87,1.71,5.88,4.53,5.88s4.53-1.94,4.53-5.71v-13.62h4.62v13.42c0,7.2-3.57,10.74-9.2,10.74s-9.08-3.57-9.08-10.57Z"/>
          <path class="cls-1" d="M193.9,8.24h9.59c2.67,0,4.74.85,6.12,2.41,1.17,1.33,1.8,3.19,1.8,5.44v.07c0,3.84-1.83,6.25-4.5,7.37l5.13,8.49h-5.4l-4.5-7.61h-3.63v7.61h-4.62V8.24ZM203.19,19.8c2.25,0,3.54-1.36,3.54-3.36v-.07c0-2.24-1.38-3.4-3.63-3.4h-4.59v6.83h4.68Z"/>
          <path class="cls-1" d="M215.57,8.24h15.83v4.65h-11.24v4.82h9.89v4.65h-9.89v4.99h11.39v4.65h-15.98V8.24Z"/>
          <path class="cls-1" d="M242.05,9.13h1.51v21.54h9.47v1.36h-10.98V9.13Z"/>
          <path class="cls-1" d="M258.12,24.01l-2.62,8.02h-1.55l7.7-22.9h1.45l7.64,22.9h-1.55l-2.68-8.02h-8.39ZM266.07,22.65l-2.59-7.64c-.54-1.6-.82-2.75-1.1-4.04h-.09c-.28,1.33-.63,2.51-1.1,3.98l-2.59,7.71h7.48Z"/>
          <path class="cls-1" d="M273.39,9.47c1.2-.31,2.71-.51,4.29-.51,2.65,0,4.39.61,5.55,1.9.88.92,1.33,2.14,1.33,3.74,0,2.34-1.55,4.32-3.66,5.1v.1c1.8.44,4.51,2.11,4.51,5.84,0,1.87-.63,3.3-1.58,4.38-1.42,1.53-3.72,2.17-6.75,2.17-1.61,0-2.84-.14-3.69-.2V9.47ZM274.9,19.19h3.09c3.09,0,5.02-1.97,5.02-4.49,0-3.23-2.27-4.38-5.43-4.38-1.39,0-2.21.1-2.68.24v8.63ZM274.9,30.67c.63.14,1.48.17,2.62.17,3.25,0,6.31-1.26,6.31-5.16,0-3.6-2.87-5.16-6.25-5.16h-2.68v10.16Z"/>
          <path class="cls-1" d="M288.03,29.51c1.2.88,2.87,1.49,4.64,1.49,3.19,0,5.14-1.94,5.14-4.76,0-2.58-1.23-4.08-4.32-5.37-3.41-1.29-5.46-3.19-5.46-6.32,0-3.36,2.56-5.81,6.19-5.81,1.99,0,3.5.54,4.23,1.09l-.57,1.36c-.57-.44-1.92-1.09-3.76-1.09-3.44,0-4.61,2.38-4.61,4.18,0,2.55,1.36,3.84,4.42,5.13,3.5,1.53,5.36,3.23,5.36,6.66s-2.21,6.32-6.75,6.32c-1.83,0-3.98-.65-5.08-1.56l.57-1.32Z"/>
        </g>
        <g>
          <path class="cls-1" d="M79.98,41.21v6.67h-.75v-6.67h.75Z"/>
          <path class="cls-1" d="M81.64,47.89v-6.67h.82l1.86,3.38c.43.78.77,1.49,1.04,2.17h.02c-.07-.9-.09-1.71-.09-2.75v-2.79h.71v6.67h-.76l-1.84-3.39c-.4-.74-.79-1.5-1.08-2.23h-.03c.04.85.06,1.65.06,2.76v2.85h-.71Z"/>
          <path class="cls-1" d="M87.65,41.21h3.12v.72h-2.37v2.22h2.19v.71h-2.19v3.02h-.75v-6.67Z"/>
          <path class="cls-1" d="M97.15,44.48c0,2.3-1.21,3.52-2.69,3.52s-2.61-1.37-2.61-3.39c0-2.12,1.14-3.51,2.69-3.51s2.61,1.4,2.61,3.38ZM92.65,44.59c0,1.43.67,2.7,1.85,2.7s1.86-1.26,1.86-2.77c0-1.33-.6-2.71-1.85-2.71s-1.86,1.32-1.86,2.78Z"/>
          <path class="cls-1" d="M98.47,41.3c.38-.09.92-.14,1.44-.14.8,0,1.32.17,1.68.54.29.3.46.75.46,1.27,0,.88-.48,1.47-1.09,1.7v.03c.45.18.71.65.85,1.35.19.93.33,1.57.45,1.83h-.77c-.09-.19-.22-.76-.39-1.59-.17-.92-.48-1.27-1.16-1.3h-.71v2.89h-.75v-6.58ZM99.22,44.34h.77c.8,0,1.31-.5,1.31-1.27,0-.86-.54-1.24-1.33-1.25-.36,0-.62.04-.74.08v2.44Z"/>
          <path class="cls-1" d="M108.34,44.95c-.04-.93-.09-2.05-.09-2.88h-.03c-.2.78-.44,1.61-.73,2.53l-1.02,3.24h-.57l-.94-3.18c-.28-.94-.51-1.8-.67-2.59h-.02c-.02.83-.06,1.95-.11,2.95l-.15,2.86h-.71l.4-6.67h.95l.99,3.23c.24.82.44,1.55.58,2.25h.03c.15-.67.35-1.41.61-2.25l1.03-3.23h.95l.36,6.67h-.73l-.15-2.93Z"/>
          <path class="cls-1" d="M111.57,45.79l-.6,2.1h-.77l1.97-6.67h.9l1.98,6.67h-.8l-.62-2.1h-2.06ZM113.48,45.11l-.57-1.92c-.13-.44-.22-.83-.3-1.22h-.02c-.09.4-.18.8-.29,1.21l-.57,1.93h1.75Z"/>
          <path class="cls-1" d="M116.69,41.94h-1.76v-.73h4.29v.73h-1.77v5.94h-.76v-5.94Z"/>
          <path class="cls-1" d="M120.97,41.21v6.67h-.75v-6.67h.75Z"/>
          <path class="cls-1" d="M127.58,44.48c0,2.3-1.21,3.52-2.69,3.52s-2.61-1.37-2.61-3.39c0-2.12,1.14-3.51,2.69-3.51s2.61,1.4,2.61,3.38ZM123.08,44.59c0,1.43.67,2.7,1.85,2.7s1.86-1.26,1.86-2.77c0-1.33-.6-2.71-1.85-2.71s-1.86,1.32-1.86,2.78Z"/>
          <path class="cls-1" d="M128.91,47.89v-6.67h.82l1.86,3.38c.43.78.77,1.49,1.04,2.17h.02c-.07-.9-.09-1.71-.09-2.75v-2.79h.71v6.67h-.76l-1.84-3.39c-.4-.74-.79-1.5-1.08-2.23h-.03c.04.85.06,1.65.06,2.76v2.85h-.71Z"/>
          <path class="cls-1" d="M140.73,47.89c-.16-.19-.32-.38-.54-.65-.5.53-1.06.76-1.7.76-1.13,0-1.78-.87-1.78-1.87,0-.91.47-1.53,1.14-1.95v-.03c-.3-.44-.48-.92-.48-1.4,0-.81.51-1.64,1.47-1.64.72,0,1.28.55,1.28,1.42,0,.7-.35,1.26-1.27,1.78v.03c.49.65,1.04,1.39,1.41,1.86.27-.46.45-1.11.56-1.95h.69c-.15,1.05-.4,1.88-.83,2.47.31.38.61.75.95,1.18h-.89ZM139.81,46.74c-.34-.44-.99-1.25-1.63-2.1-.31.23-.75.65-.75,1.36,0,.76.49,1.35,1.19,1.35.5,0,.92-.26,1.2-.6ZM138.05,42.67c0,.48.19.84.44,1.2.59-.39.96-.74.96-1.31,0-.41-.2-.86-.67-.86s-.73.46-.73.97Z"/>
          <path class="cls-1" d="M148.88,47.67c-.28.16-.83.32-1.53.32-1.63,0-2.86-1.19-2.86-3.38s1.23-3.51,3.03-3.51c.72,0,1.18.18,1.38.3l-.18.7c-.28-.16-.69-.28-1.17-.28-1.36,0-2.26,1-2.26,2.75,0,1.63.82,2.68,2.23,2.68.46,0,.92-.11,1.22-.28l.15.68Z"/>
          <path class="cls-1" d="M151.49,47.89v-2.83l-1.83-3.84h.85l.82,1.84c.22.51.4.91.58,1.38h.02c.16-.44.36-.87.58-1.38l.83-1.84h.85l-1.94,3.83v2.84h-.76Z"/>
          <path class="cls-1" d="M155.14,41.3c.33-.08.84-.14,1.37-.14.75,0,1.23.15,1.59.48.3.26.48.65.48,1.18,0,.64-.37,1.21-.98,1.47v.02c.55.16,1.2.68,1.2,1.67,0,.57-.2,1.01-.49,1.34-.4.43-1.06.62-2,.62-.52,0-.91-.04-1.16-.08v-6.56ZM155.89,44.03h.68c.79,0,1.26-.48,1.26-1.12,0-.78-.52-1.09-1.27-1.09-.34,0-.54.03-.66.06v2.15ZM155.89,47.23c.15.03.36.04.63.04.77,0,1.49-.33,1.49-1.3,0-.91-.68-1.29-1.5-1.29h-.62v2.54Z"/>
          <path class="cls-1" d="M163.16,44.76h-2.25v2.41h2.51v.72h-3.26v-6.67h3.13v.72h-2.38v2.11h2.25v.71Z"/>
          <path class="cls-1" d="M164.74,41.3c.38-.09.92-.14,1.44-.14.8,0,1.32.17,1.68.54.29.3.46.75.46,1.27,0,.88-.48,1.47-1.09,1.7v.03c.45.18.71.65.85,1.35.19.93.33,1.57.45,1.83h-.77c-.09-.19-.22-.76-.39-1.59-.17-.92-.48-1.27-1.16-1.3h-.71v2.89h-.75v-6.58ZM165.49,44.34h.77c.8,0,1.31-.5,1.31-1.27,0-.86-.54-1.24-1.33-1.25-.36,0-.62.04-.74.08v2.44Z"/>
          <path class="cls-1" d="M171.8,46.84c.34.24.83.44,1.34.44.77,0,1.21-.47,1.21-1.14,0-.62-.31-.98-1.09-1.33-.95-.39-1.53-.95-1.53-1.89,0-1.04.75-1.81,1.88-1.81.59,0,1.02.16,1.28.33l-.21.7c-.19-.12-.58-.32-1.1-.32-.79,0-1.09.54-1.09,1,0,.62.35.93,1.15,1.29.98.44,1.48.98,1.48,1.96,0,1.03-.66,1.92-2.03,1.92-.56,0-1.17-.19-1.48-.43l.19-.72Z"/>
          <path class="cls-1" d="M179.49,44.76h-2.25v2.41h2.51v.72h-3.26v-6.67h3.13v.72h-2.38v2.11h2.25v.71Z"/>
          <path class="cls-1" d="M185.13,47.67c-.28.16-.83.32-1.53.32-1.63,0-2.86-1.19-2.86-3.38s1.23-3.51,3.03-3.51c.72,0,1.18.18,1.38.3l-.18.7c-.28-.16-.69-.28-1.17-.28-1.36,0-2.26,1-2.26,2.75,0,1.63.82,2.68,2.23,2.68.46,0,.92-.11,1.22-.28l.15.68Z"/>
          <path class="cls-1" d="M187.17,41.21v3.95c0,1.49.58,2.13,1.35,2.13.86,0,1.41-.65,1.41-2.13v-3.95h.76v3.89c0,2.05-.94,2.89-2.19,2.89-1.19,0-2.08-.78-2.08-2.85v-3.93h.76Z"/>
          <path class="cls-1" d="M192.34,41.3c.38-.09.92-.14,1.44-.14.8,0,1.32.17,1.68.54.29.3.46.75.46,1.27,0,.88-.48,1.47-1.09,1.7v.03c.45.18.71.65.85,1.35.19.93.33,1.57.45,1.83h-.77c-.09-.19-.22-.76-.39-1.59-.17-.92-.48-1.27-1.16-1.3h-.71v2.89h-.75v-6.58ZM193.08,44.34h.77c.8,0,1.31-.5,1.31-1.27,0-.86-.54-1.24-1.33-1.25-.36,0-.62.04-.74.08v2.44Z"/>
          <path class="cls-1" d="M198.06,41.21v6.67h-.75v-6.67h.75Z"/>
          <path class="cls-1" d="M200.83,41.94h-1.76v-.73h4.29v.73h-1.77v5.94h-.76v-5.94Z"/>
          <path class="cls-1" d="M205.88,47.89v-2.83l-1.83-3.84h.85l.82,1.84c.22.51.4.91.58,1.38h.02c.16-.44.36-.87.58-1.38l.83-1.84h.85l-1.94,3.83v2.84h-.76Z"/>
          <path class="cls-1" d="M215.83,47.67c-.28.16-.83.32-1.53.32-1.63,0-2.86-1.19-2.86-3.38s1.23-3.51,3.03-3.51c.72,0,1.18.18,1.38.3l-.18.7c-.28-.16-.69-.28-1.17-.28-1.36,0-2.26,1-2.26,2.75,0,1.63.82,2.68,2.23,2.68.46,0,.92-.11,1.22-.28l.15.68Z"/>
          <path class="cls-1" d="M221.89,44.48c0,2.3-1.21,3.52-2.69,3.52s-2.61-1.37-2.61-3.39c0-2.12,1.14-3.51,2.69-3.51s2.61,1.4,2.61,3.38ZM217.39,44.59c0,1.43.67,2.7,1.85,2.7s1.86-1.26,1.86-2.77c0-1.33-.6-2.71-1.85-2.71s-1.86,1.32-1.86,2.78Z"/>
          <path class="cls-1" d="M223.22,47.89v-6.67h.82l1.86,3.38c.43.78.77,1.49,1.04,2.17h.02c-.07-.9-.09-1.71-.09-2.75v-2.79h.71v6.67h-.76l-1.84-3.39c-.4-.74-.79-1.5-1.08-2.23h-.03c.04.85.06,1.65.06,2.76v2.85h-.71Z"/>
          <path class="cls-1" d="M229.13,46.84c.34.24.83.44,1.34.44.77,0,1.21-.47,1.21-1.14,0-.62-.31-.98-1.09-1.33-.95-.39-1.53-.95-1.53-1.89,0-1.04.75-1.81,1.88-1.81.59,0,1.02.16,1.28.33l-.21.7c-.19-.12-.58-.32-1.1-.32-.79,0-1.09.54-1.09,1,0,.62.35.93,1.15,1.29.98.44,1.48.98,1.48,1.96,0,1.03-.66,1.92-2.03,1.92-.56,0-1.17-.19-1.48-.43l.19-.72Z"/>
          <path class="cls-1" d="M234.57,41.21v3.95c0,1.49.58,2.13,1.35,2.13.86,0,1.41-.65,1.41-2.13v-3.95h.76v3.89c0,2.05-.94,2.89-2.19,2.89-1.19,0-2.08-.78-2.08-2.85v-3.93h.76Z"/>
          <path class="cls-1" d="M239.74,41.21h.75v5.95h2.48v.72h-3.23v-6.67Z"/>
          <path class="cls-1" d="M244.5,41.94h-1.76v-.73h4.29v.73h-1.77v5.94h-.76v-5.94Z"/>
          <path class="cls-1" d="M248.77,41.21v6.67h-.75v-6.67h.75Z"/>
          <path class="cls-1" d="M250.43,47.89v-6.67h.82l1.86,3.38c.43.78.77,1.49,1.04,2.17h.02c-.07-.9-.09-1.71-.09-2.75v-2.79h.71v6.67h-.76l-1.84-3.39c-.4-.74-.79-1.5-1.08-2.23h-.03c.04.85.06,1.65.06,2.76v2.85h-.71Z"/>
          <path class="cls-1" d="M260.86,47.59c-.34.14-1,.37-1.78.37-.88,0-1.6-.26-2.17-.88-.5-.55-.81-1.45-.81-2.49,0-1.99,1.2-3.45,3.14-3.45.67,0,1.2.17,1.45.31l-.18.7c-.31-.16-.7-.29-1.28-.29-1.41,0-2.33,1.01-2.33,2.68s.89,2.69,2.24,2.69c.49,0,.83-.08,1-.18v-1.99h-1.18v-.69h1.91v3.21Z"/>
          <path class="cls-1" d="M264.43,46.84c.34.24.83.44,1.34.44.77,0,1.21-.47,1.21-1.14,0-.62-.31-.98-1.09-1.33-.95-.39-1.53-.95-1.53-1.89,0-1.04.75-1.81,1.88-1.81.59,0,1.02.16,1.28.33l-.21.7c-.19-.12-.58-.32-1.1-.32-.79,0-1.09.54-1.09,1,0,.62.35.93,1.15,1.29.98.44,1.48.98,1.48,1.96,0,1.03-.66,1.92-2.03,1.92-.56,0-1.17-.19-1.48-.43l.19-.72Z"/>
          <path class="cls-1" d="M272.13,44.76h-2.25v2.41h2.51v.72h-3.26v-6.67h3.13v.72h-2.38v2.11h2.25v.71Z"/>
          <path class="cls-1" d="M273.71,41.3c.38-.09.92-.14,1.44-.14.8,0,1.32.17,1.68.54.29.3.46.75.46,1.27,0,.88-.48,1.47-1.09,1.7v.03c.45.18.71.65.85,1.35.19.93.33,1.57.45,1.83h-.77c-.09-.19-.22-.76-.39-1.59-.17-.92-.48-1.27-1.16-1.3h-.71v2.89h-.75v-6.58ZM274.46,44.34h.77c.8,0,1.31-.5,1.31-1.27,0-.86-.54-1.24-1.33-1.25-.36,0-.62.04-.74.08v2.44Z"/>
          <path class="cls-1" d="M280.1,47.89l-1.89-6.67h.81l.9,3.29c.25.9.46,1.71.62,2.5h.02c.16-.77.4-1.61.66-2.49l.98-3.3h.8l-2.07,6.67h-.83Z"/>
          <path class="cls-1" d="M284.73,41.21v6.67h-.75v-6.67h.75Z"/>
          <path class="cls-1" d="M290.44,47.67c-.28.16-.83.32-1.53.32-1.63,0-2.86-1.19-2.86-3.38s1.23-3.51,3.03-3.51c.72,0,1.18.18,1.38.3l-.18.7c-.28-.16-.69-.28-1.17-.28-1.36,0-2.26,1-2.26,2.75,0,1.63.82,2.68,2.23,2.68.46,0,.92-.11,1.22-.28l.15.68Z"/>
          <path class="cls-1" d="M294.73,44.76h-2.25v2.41h2.51v.72h-3.26v-6.67h3.13v.72h-2.38v2.11h2.25v.71Z"/>
          <path class="cls-1" d="M296.21,46.84c.34.24.83.44,1.34.44.77,0,1.21-.47,1.21-1.14,0-.62-.31-.98-1.09-1.33-.95-.39-1.53-.95-1.53-1.89,0-1.04.75-1.81,1.88-1.81.59,0,1.02.16,1.28.33l-.21.7c-.19-.12-.58-.32-1.1-.32-.79,0-1.09.54-1.09,1,0,.62.35.93,1.15,1.29.98.44,1.48.98,1.48,1.96,0,1.03-.66,1.92-2.03,1.92-.56,0-1.17-.19-1.48-.43l.19-.72Z"/>
        </g>
        <rect class="cls-1" x="79.23" y="52.03" width="220.06" height=".57"/>
        <g>
          <path class="cls-1" d="M82.35,56.42h1.16l3.14,7.19h-1.33l-.72-1.72h-3.37l-.73,1.72h-1.28l3.14-7.19ZM84.14,60.77l-1.23-2.85-1.22,2.85h2.46Z"/>
          <path class="cls-1" d="M95.88,60.05v-.02c0-2,1.53-3.69,3.68-3.69,1.24,0,2.01.35,2.74.97l-.79.95c-.55-.47-1.09-.76-2-.76-1.31,0-2.31,1.15-2.31,2.52v.02c0,1.47.97,2.55,2.43,2.55.67,0,1.28-.21,1.72-.54v-1.33h-1.82v-1.09h3.04v3c-.7.6-1.71,1.11-2.98,1.11-2.23,0-3.7-1.59-3.7-3.67Z"/>
          <path class="cls-1" d="M109.35,56.42h1.16l3.14,7.19h-1.33l-.72-1.72h-3.37l-.73,1.72h-1.28l3.14-7.19ZM111.14,60.77l-1.23-2.85-1.22,2.85h2.46Z"/>
          <path class="cls-1" d="M118.34,57.63h-2.26v-1.16h5.79v1.16h-2.26v5.97h-1.26v-5.97Z"/>
          <path class="cls-1" d="M125.83,56.47h5.29v1.12h-4.04v1.86h3.58v1.12h-3.58v1.92h4.09v1.12h-5.34v-7.13Z"/>
          <path class="cls-1" d="M134.74,56.47h1.36l1.7,5.29,1.75-5.31h1.06l1.75,5.31,1.7-5.29h1.31l-2.49,7.19h-1.08l-1.75-5.13-1.75,5.13h-1.08l-2.49-7.19Z"/>
          <path class="cls-1" d="M150.91,56.42h1.16l3.14,7.19h-1.32l-.72-1.72h-3.37l-.73,1.72h-1.28l3.14-7.19ZM152.7,60.77l-1.23-2.85-1.22,2.85h2.46Z"/>
          <path class="cls-1" d="M160.05,60.79l-2.83-4.32h1.48l2,3.16,2.02-3.16h1.44l-2.83,4.29v2.84h-1.26v-2.81Z"/>
          <path class="cls-1" d="M173.26,60.05v-.02c0-2,1.53-3.69,3.68-3.69,1.24,0,2.01.35,2.74.97l-.79.95c-.55-.47-1.09-.76-2-.76-1.32,0-2.31,1.15-2.31,2.52v.02c0,1.47.97,2.55,2.43,2.55.67,0,1.28-.21,1.72-.54v-1.33h-1.82v-1.09h3.04v3c-.7.6-1.71,1.11-2.98,1.11-2.23,0-3.7-1.59-3.7-3.67Z"/>
          <path class="cls-1" d="M184.19,56.47h3.18c.9,0,1.6.26,2.06.71.38.39.59.92.59,1.54v.02c0,1.17-.7,1.88-1.7,2.16l1.93,2.7h-1.48l-1.75-2.49h-1.57v2.49h-1.25v-7.13ZM187.28,60c.9,0,1.47-.47,1.47-1.19v-.02c0-.76-.55-1.18-1.48-1.18h-1.83v2.4h1.83Z"/>
          <path class="cls-1" d="M193.88,60.05v-.02c0-2.01,1.55-3.69,3.74-3.69s3.72,1.66,3.72,3.67v.02c0,2.01-1.55,3.69-3.74,3.69s-3.72-1.66-3.72-3.67ZM200.03,60.05v-.02c0-1.39-1.01-2.54-2.43-2.54s-2.41,1.13-2.41,2.52v.02c0,1.39,1.01,2.54,2.43,2.54s2.41-1.13,2.41-2.52Z"/>
          <path class="cls-1" d="M205.38,60.57v-4.11h1.25v4.06c0,1.33.68,2.04,1.8,2.04s1.79-.67,1.79-1.99v-4.11h1.25v4.05c0,2.13-1.2,3.2-3.07,3.2s-3.04-1.07-3.04-3.14Z"/>
          <path class="cls-1" d="M215.84,56.47h2.81c1.66,0,2.71.95,2.71,2.38v.02c0,1.6-1.29,2.44-2.85,2.44h-1.42v2.29h-1.25v-7.13ZM218.55,60.18c.95,0,1.54-.53,1.54-1.27v-.02c0-.83-.6-1.27-1.54-1.27h-1.46v2.57h1.46Z"/>
          <path class="cls-1" d="M230.66,60.05v-.02c0-2.03,1.52-3.69,3.68-3.69,1.31,0,2.11.46,2.79,1.11l-.81.93c-.57-.53-1.18-.89-2-.89-1.37,0-2.35,1.12-2.35,2.52v.02c0,1.4.99,2.54,2.35,2.54.88,0,1.44-.36,2.05-.93l.81.82c-.74.77-1.56,1.26-2.89,1.26-2.08,0-3.63-1.62-3.63-3.67Z"/>
          <path class="cls-1" d="M240.62,60.05v-.02c0-2.01,1.55-3.69,3.74-3.69s3.72,1.66,3.72,3.67v.02c0,2.01-1.55,3.69-3.74,3.69s-3.72-1.66-3.72-3.67ZM246.76,60.05v-.02c0-1.39-1.01-2.54-2.43-2.54s-2.41,1.13-2.41,2.52v.02c0,1.39,1.01,2.54,2.43,2.54s2.41-1.13,2.41-2.52Z"/>
          <path class="cls-1" d="M252.23,56.47h1.34l2.17,3.37,2.17-3.37h1.33v7.13h-1.25v-5.12l-2.25,3.36h-.04l-2.23-3.34v5.1h-1.23v-7.13Z"/>
          <path class="cls-1" d="M263.71,56.47h2.81c1.66,0,2.71.95,2.71,2.38v.02c0,1.6-1.29,2.44-2.85,2.44h-1.42v2.29h-1.25v-7.13ZM266.42,60.18c.95,0,1.54-.53,1.54-1.27v-.02c0-.83-.6-1.27-1.54-1.27h-1.46v2.57h1.46Z"/>
          <path class="cls-1" d="M274.97,56.42h1.16l3.14,7.19h-1.32l-.72-1.72h-3.37l-.73,1.72h-1.28l3.14-7.19ZM276.76,60.77l-1.23-2.85-1.22,2.85h2.46Z"/>
          <path class="cls-1" d="M283.12,56.47h1.16l3.82,4.93v-4.93h1.23v7.13h-1.05l-3.93-5.08v5.08h-1.23v-7.13Z"/>
          <path class="cls-1" d="M295.91,60.79l-2.83-4.32h1.48l2,3.16,2.02-3.16h1.44l-2.83,4.29v2.84h-1.26v-2.81Z"/>
        </g>
      </g>
    </g>
  </g>
</svg>